<svg width="120" height="120" viewBox="0 0 10 6" xmlns="http://www.w3.org/2000/svg" class="svg-icon " xmlns:xlink="http://www.w3.org/1999/xlink"><defs><marker id="arrow" fill="white" viewBox="0 0 10 10" refX="5" refY="5" markerWidth="6" markerHeight="6" orient="auto-start-reverse"><path d="M 0 0 L 10 5 L 0 10 z"></path></marker></defs><g id="group" transform=" rotate(-45 5 0)"><g><rect width="0.95" height="0.95" fill="rgb(0, 255 , 177.5)" x="0" y="0"></rect><rect width="0.95" height="0.95" fill="rgb(63.75, 255 , 196.875)" x="0" y="1"></rect><rect width="0.95" height="0.95" fill="rgb(127.5, 255 , 216.25)" x="0" y="2"></rect><rect width="0.95" height="0.95" fill="rgb(191.25, 255 , 235.625)" x="0" y="3"></rect><rect width="0.95" height="0.95" fill="rgb(255, 255 , 255)" x="0" y="4"></rect><rect width="0.95" height="0.95" fill="rgb(0, 191.25 , 158.125)" x="1" y="0"></rect><rect width="0.95" height="0.95" fill="rgb(63.75, 191.25 , 177.5)" x="1" y="1"></rect><rect width="0.95" height="0.95" fill="rgb(127.5, 191.25 , 196.875)" x="1" y="2"></rect><rect width="0.95" height="0.95" fill="rgb(191.25, 191.25 , 216.25)" x="1" y="3"></rect><rect width="0.95" height="0.95" fill="rgb(255, 191.25 , 235.625)" x="1" y="4"></rect><rect width="0.95" height="0.95" fill="rgb(0, 127.5 , 138.75)" x="2" y="0"></rect><rect width="0.95" height="0.95" fill="rgb(63.75, 127.5 , 158.125)" x="2" y="1"></rect><rect width="0.95" height="0.95" fill="rgb(127.5, 127.5 , 177.5)" x="2" y="2"></rect><rect width="0.95" height="0.95" fill="rgb(191.25, 127.5 , 196.875)" x="2" y="3"></rect><rect width="0.95" height="0.95" fill="rgb(255, 127.5 , 216.25)" x="2" y="4"></rect><rect width="0.95" height="0.95" fill="rgb(0, 63.75 , 119.375)" x="3" y="0"></rect><rect width="0.95" height="0.95" fill="rgb(63.75, 63.75 , 138.75)" x="3" y="1"></rect><rect width="0.95" height="0.95" fill="rgb(127.5, 63.75 , 158.125)" x="3" y="2"></rect><rect width="0.95" height="0.95" fill="rgb(191.25, 63.75 , 177.5)" x="3" y="3"></rect><rect width="0.95" height="0.95" fill="rgb(255, 63.75 , 196.875)" x="3" y="4"></rect><rect width="0.95" height="0.95" fill="rgb(0, 0 , 100)" x="4" y="0"></rect><rect width="0.95" height="0.95" fill="rgb(63.75, 0 , 119.375)" x="4" y="1"></rect><rect width="0.95" height="0.95" fill="rgb(127.5, 0 , 138.75)" x="4" y="2"></rect><rect width="0.95" height="0.95" fill="rgb(191.25, 0 , 158.125)" x="4" y="3"></rect><rect width="0.95" height="0.95" fill="rgb(255, 0 , 177.5)" x="4" y="4"></rect></g><polyline points="-0.2,-0.4, -0.2,5.1, 5.3,5.1" fill="none" stroke="white" stroke-width="0.1" marker-start="url(#arrow)" marker-end="url(#arrow)"></polyline><text x="2.5" y="6" font-size="0.06em" text-anchor="middle" fill="white" font-weight="bold">Corruption</text><text transform=" rotate(90 0 0)" fill="white" x="2.5" y="1" font-size="0.06em" text-anchor="middle" font-weight="bold">Investment</text></g></svg>